<?xml version="1.0"?>
<svg xmlns="http://www.w3.org/2000/svg" xmlns:xlink="http://www.w3.org/1999/xlink" xmlns:svgjs="http://svgjs.com/svgjs" version="1.1" width="512" height="512" x="0" y="0" viewBox="0 0 512.383 512.383" style="enable-background:new 0 0 512 512" xml:space="preserve" class=""><g><g xmlns="http://www.w3.org/2000/svg"><path d="m185.941 342 20 20 20-20v50h-40z" fill="#6e41e2" data-original="#ff9eb1" style="" class=""/><path d="m75.941 452.382c-13.333-16.569-13.333-43.431 0-60h340c13.333 16.569 13.333 43.431 0 60z" fill="#6e41e2" data-original="#c5d3de" style="" class=""/><path d="m305.941 502.382-20-20-20 20v-50h40z" fill="#6e41e2" data-original="#ff9eb1" style="" class=""/><path d="m225.941 392.382h40v60h-40z" fill="#6e41e2" data-original="#ffbecb" style="" class=""/><path d="m385.941 164v106c-77.32 53.333-202.68 53.333-280 0v-106" fill="#6e41e2" data-original="#a7bdcd" style="" class=""/><path d="m246.067 250-199.626-119.534 200.374-120.466 199.626 119.535z" fill="#6e41e2" data-original="#c5d3de" style="" class=""/><ellipse cx="245.941" cy="130" fill="#ffffff" rx="40" ry="20" data-original="#ffffff" style="" class=""/><circle cx="445.941" cy="270" fill="#6e41e2" r="20" data-original="#ff9eb1" style="" class=""/><g fill="#8aa8bd"><path d="m415.941 382.382h-180v-40.382c0-4.044-2.437-7.691-6.173-9.239-3.737-1.549-8.038-.692-10.898 2.167l-12.929 12.929-12.929-12.929c-2.86-2.859-7.162-3.715-10.898-2.167s-6.173 5.194-6.173 9.239v40.382h-100c-3.027 0-5.893 1.372-7.791 3.73-16.366 20.338-16.366 52.201 0 72.539 1.898 2.359 4.764 3.73 7.791 3.73h180v40c0 4.044 2.437 7.691 6.173 9.239 3.737 1.549 8.039.692 10.898-2.167l12.929-12.929 12.929 12.929c1.913 1.913 4.471 2.929 7.073 2.929 1.288 0 2.588-.25 3.825-.762 3.736-1.548 6.173-5.194 6.173-9.239v-40h100c3.027 0 5.893-1.372 7.791-3.73 16.366-20.338 16.366-52.201 0-72.539-1.898-2.359-4.763-3.73-7.791-3.73zm-160 60h-20v-40h20zm-60-76.24 2.929 2.929c3.906 3.905 10.236 3.905 14.143 0l2.929-2.929v16.24h-20v-16.24zm-114.785 36.24h134.785v40h-134.785c-6.918-11.719-6.918-28.281 0-40zm214.785 75.858-2.929-2.929c-3.906-3.905-10.236-3.905-14.143 0l-2.929 2.929v-15.858h20v15.858zm114.785-35.858h-134.785v-40h134.785c6.918 11.719 6.918 28.281 0 40z" fill="#ffffff" data-original="#8aa8bd" style="" class=""/><path d="m455.941 241.72v-108.589c.324-.985.5-2.038.5-3.131 0-.09-.011-.177-.013-.266.001-.07.013-.138.013-.208-.003-3.513-1.849-6.766-4.862-8.571l-199.626-119.535c-3.169-1.896-7.125-1.895-10.29.009l-200.374 120.466c-3.011 1.81-4.851 5.066-4.848 8.579s1.849 6.766 4.862 8.571l54.638 32.717v98.238c0 3.288 1.616 6.365 4.322 8.232 39.049 26.935 90.785 41.768 145.678 41.768s106.629-14.833 145.678-41.768c2.706-1.867 4.322-4.944 4.322-8.232v-98.437l40-24.048v94.205c-11.639 4.128-20 15.243-20 28.28 0 16.542 13.458 30 30 30s30-13.458 30-30c0-13.036-8.361-24.152-20-28.28zm-209.115-220.058 164.227 98.338h-117.76c-6.565-11.886-24.748-20-47.352-20-28.505 0-50 12.897-50 30s21.495 30 50 30c22.604 0 40.787-8.114 47.352-20h116.333l-163.569 98.338-180.179-107.89zm29.115 108.338c0 .346-1.075 2.642-6.188 5.198-6.103 3.052-14.782 4.802-23.812 4.802s-17.709-1.75-23.813-4.802c-5.112-2.556-6.188-4.852-6.188-5.198s1.075-2.642 6.188-5.198c6.104-3.052 14.783-4.802 23.813-4.802s17.709 1.75 23.813 4.802c5.112 2.556 6.187 4.852 6.187 5.198zm100 134.658c-72.902 47.235-187.098 47.235-260 0v-80.92l124.989 74.842c1.582.947 3.359 1.42 5.138 1.42 1.783 0 3.567-.477 5.152-1.43l124.722-74.983v81.071zm70 15.342c-5.514 0-10-4.486-10-10s4.486-10 10-10 10 4.486 10 10-4.486 10-10 10z" fill="#ffffff" data-original="#8aa8bd" style="" class=""/></g></g></g></svg>
